<svg width="54" height="37" viewBox="0 0 54 37" fill="none" xmlns="http://www.w3.org/2000/svg">
<path d="M42.1875 20.5556H11.8125C10.8675 20.5556 10.125 19.6511 10.125 18.5C10.125 17.3489 10.8675 16.4444 11.8125 16.4444H42.1875C43.1325 16.4444 43.875 17.3489 43.875 18.5C43.875 19.6511 43.1325 20.5556 42.1875 20.5556Z" fill="black"/>
<path d="M33.75 34.9444C33.5287 34.9477 33.3092 34.8946 33.1058 34.7884C32.9024 34.6822 32.7194 34.5253 32.5688 34.3278C31.8937 33.5056 31.8937 32.2311 32.5688 31.4089L43.2 18.4589L32.5688 5.50889C31.8937 4.68667 31.8937 3.41222 32.5688 2.59C33.2438 1.76778 34.29 1.76778 34.965 2.59L46.7775 16.9789C47.4525 17.8011 47.4525 19.0756 46.7775 19.8978L34.965 34.2867C34.6275 34.6978 34.1888 34.9033 33.7838 34.9033L33.75 34.9444Z" fill="black"/>
</svg>
