<svg width="30" height="30" viewBox="0 0 30 30" fill="none" xmlns="http://www.w3.org/2000/svg">
<path d="M11 25.6667H6.99999C5.5855 25.6667 4.22895 25.1048 3.22875 24.1046C2.22856 23.1044 1.66666 21.7478 1.66666 20.3333V8.33333C1.66666 6.91885 2.22856 5.56229 3.22875 4.5621C4.22895 3.5619 5.5855 3 6.99999 3H21.6667C23.0811 3 24.4377 3.5619 25.4379 4.5621C26.4381 5.56229 27 6.91885 27 8.33333V12.3333M9.66666 1.66667V4.33333M19 1.66667V4.33333M1.66666 9.66667H27M23.6667 19.8573L21.6667 21.8573" stroke="black" stroke-width="2" stroke-linecap="round" stroke-linejoin="round"/>
<path d="M21.6667 28.3333C25.3486 28.3333 28.3333 25.3486 28.3333 21.6667C28.3333 17.9848 25.3486 15 21.6667 15C17.9848 15 15 17.9848 15 21.6667C15 25.3486 17.9848 28.3333 21.6667 28.3333Z" stroke="black" stroke-width="2" stroke-linecap="round" stroke-linejoin="round"/>
</svg>
